<?xml version="1.0" standalone="no"?>
<!DOCTYPE svg PUBLIC "-//W3C//DTD SVG 20010904//EN"
 "http://www.w3.org/TR/2001/REC-SVG-20010904/DTD/svg10.dtd">
<svg version="1.0" xmlns="http://www.w3.org/2000/svg"
 width="145.000000pt" height="105.000000pt" viewBox="0 0 145.000000 105.000000"
 preserveAspectRatio="xMidYMid meet">

<g transform="translate(0.000000,105.000000) scale(0.100000,-0.100000)"
fill="#000000" stroke="none">
<path d="M643 872 c-40 -86 -110 -239 -157 -339 l-84 -183 41 0 42 1 115 259
c63 143 117 260 120 260 3 0 18 -26 34 -57 15 -32 35 -69 43 -82 l16 -24 13
24 c7 13 13 31 14 39 0 17 -112 260 -120 260 -3 0 -37 -71 -77 -158z"/>
<path d="M861 649 c-10 -24 -44 -97 -75 -163 -31 -65 -56 -122 -56 -127 0 -5
14 -9 31 -9 29 0 33 5 78 101 l47 101 44 -101 c42 -99 44 -101 76 -101 31 0
33 2 25 23 -16 41 -140 310 -146 315 -2 3 -13 -15 -24 -39z"/>
<path d="M22 178 c-16 -16 -16 -80 0 -96 7 -7 21 -12 33 -11 14 0 16 2 5 6
-21 8 -30 24 -30 54 0 23 29 62 36 49 1 -3 6 -2 10 3 4 4 -4 7 -17 7 -14 0
-30 -5 -37 -12z"/>
<path d="M102 178 c-17 -17 -15 -83 2 -98 43 -35 90 23 67 83 -11 29 -47 37
-69 15z m58 -48 c0 -24 -25 -54 -38 -46 -16 10 -15 83 1 89 14 6 37 -20 37
-43z"/>
<path d="M200 131 c0 -34 4 -61 10 -61 6 0 10 12 10 28 l1 27 15 -27 c8 -16
19 -28 25 -28 6 0 7 5 2 13 -4 6 -8 32 -8 57 0 42 -2 45 -27 48 -28 3 -28 3
-28 -57z m40 25 c0 -8 -4 -18 -10 -21 -5 -3 -10 3 -10 14 0 12 5 21 10 21 6 0
10 -6 10 -14z"/>
<path d="M290 130 c0 -59 0 -60 28 -59 16 1 20 3 10 6 -22 5 -24 43 -3 43 8 0
15 5 15 10 0 6 -7 10 -15 10 -8 0 -15 7 -15 15 0 8 7 15 15 15 8 0 15 5 15 10
0 6 -11 10 -25 10 -24 0 -25 -3 -25 -60z"/>
<path d="M410 171 c-23 -43 -4 -101 33 -100 l22 0 -22 9 c-18 7 -23 17 -23 43
0 34 20 64 33 50 4 -3 7 -1 7 5 0 19 -38 14 -50 -7z"/>
<path d="M492 178 c-17 -17 -15 -83 2 -98 41 -33 83 16 67 78 -8 30 -47 42
-69 20z m50 -23 c8 -19 8 -31 -1 -51 -15 -34 -35 -26 -39 15 -6 61 19 83 40
36z"/>
<path d="M592 128 c1 -50 2 -54 5 -20 2 23 7 42 11 42 4 0 15 -18 24 -40 25
-59 38 -50 36 23 -1 49 -2 53 -5 20 -2 -24 -7 -43 -11 -43 -4 0 -15 18 -24 40
-25 59 -38 50 -36 -22z"/>
<path d="M700 161 c0 -16 7 -34 15 -41 23 -19 19 -43 -5 -37 -11 3 -20 1 -20
-5 0 -5 12 -8 27 -6 36 4 42 33 13 63 -23 24 -19 51 6 41 8 -3 14 -1 14 4 0 6
-11 10 -25 10 -21 0 -25 -5 -25 -29z"/>
<path d="M773 179 c12 -7 17 -23 17 -59 0 -28 5 -50 10 -50 6 0 10 24 10 54 0
34 5 56 13 59 6 3 -6 6 -28 6 -32 0 -36 -2 -22 -10z"/>
<path d="M850 131 c0 -34 4 -61 10 -61 6 0 10 12 10 28 l1 27 15 -27 c8 -16
19 -28 25 -28 6 0 7 5 2 13 -4 6 -8 32 -8 57 0 42 -2 45 -27 48 -28 3 -28 3
-28 -57z m40 18 c0 -10 -4 -19 -10 -19 -5 0 -10 12 -10 26 0 14 4 23 10 19 6
-3 10 -15 10 -26z"/>
<path d="M944 135 c1 -55 3 -60 25 -63 31 -5 41 12 41 71 0 64 -18 60 -22 -5
-2 -39 -7 -53 -18 -53 -11 0 -17 16 -21 55 l-6 55 1 -60z"/>
<path d="M1040 171 c-23 -43 -4 -101 33 -101 l21 0 -22 16 c-26 18 -30 65 -5
85 9 8 17 12 19 9 1 -3 6 -2 10 3 4 4 -5 7 -19 7 -16 0 -30 -8 -37 -19z"/>
<path d="M1118 183 c7 -3 12 -25 12 -59 0 -30 5 -54 10 -54 6 0 10 24 10 54 0
34 5 56 13 59 6 3 -4 5 -23 5 -19 0 -29 -2 -22 -5z"/>
<path d="M1203 130 c0 -36 2 -50 4 -32 2 17 2 47 0 65 -2 17 -4 3 -4 -33z"/>
<path d="M1250 171 c-25 -48 -2 -105 40 -99 52 7 48 118 -4 118 -15 0 -30 -8
-36 -19z m56 -15 c10 -41 1 -71 -21 -71 -15 0 -21 8 -23 33 -2 19 -1 40 2 48
9 22 35 16 42 -10z"/>
<path d="M1350 130 c0 -37 4 -60 11 -60 7 0 10 17 7 45 -2 25 -2 45 0 45 2 0
12 -20 23 -45 11 -25 24 -45 29 -45 6 0 9 28 8 63 l-1 62 -6 -50 -6 -50 -19
48 c-27 67 -46 62 -46 -13z"/>
</g>
</svg>
