<?xml version="1.0" standalone="no"?>
<svg xmlns:xlink="http://www.w3.org/1999/xlink" id="wave" style="transform:rotate(0deg); transition: 0.3s" viewBox="0 0 1440 240" version="1.1" xmlns="http://www.w3.org/2000/svg"><defs><linearGradient id="sw-gradient-0" x1="0" x2="0" y1="1" y2="0"><stop stop-color="rgba(243, 106, 62, 1)" offset="0%"/><stop stop-color="rgba(255, 179, 11, 1)" offset="100%"/></linearGradient></defs><path style="transform:translate(0, 0px); opacity:1" fill="url(#sw-gradient-0)" d="M0,0L10,20C20,40,40,80,60,104C80,128,100,136,120,152C140,168,160,192,180,196C200,200,220,184,240,180C260,176,280,184,300,188C320,192,340,192,360,184C380,176,400,160,420,128C440,96,460,48,480,52C500,56,520,112,540,120C560,128,580,88,600,80C620,72,640,96,660,92C680,88,700,56,720,64C740,72,760,120,780,116C800,112,820,56,840,60C860,64,880,128,900,152C920,176,940,160,960,128C980,96,1000,48,1020,44C1040,40,1060,80,1080,84C1100,88,1120,56,1140,56C1160,56,1180,88,1200,84C1220,80,1240,40,1260,56C1280,72,1300,144,1320,180C1340,216,1360,216,1380,196C1400,176,1420,136,1430,116L1440,96L1440,240L1430,240C1420,240,1400,240,1380,240C1360,240,1340,240,1320,240C1300,240,1280,240,1260,240C1240,240,1220,240,1200,240C1180,240,1160,240,1140,240C1120,240,1100,240,1080,240C1060,240,1040,240,1020,240C1000,240,980,240,960,240C940,240,920,240,900,240C880,240,860,240,840,240C820,240,800,240,780,240C760,240,740,240,720,240C700,240,680,240,660,240C640,240,620,240,600,240C580,240,560,240,540,240C520,240,500,240,480,240C460,240,440,240,420,240C400,240,380,240,360,240C340,240,320,240,300,240C280,240,260,240,240,240C220,240,200,240,180,240C160,240,140,240,120,240C100,240,80,240,60,240C40,240,20,240,10,240L0,240Z"/></svg>